<svg xmlns="http://www.w3.org/2000/svg" xmlns:xlink="http://www.w3.org/1999/xlink" preserveAspectRatio="xMidYMid" width="215.94" height="54.282" viewBox="0 0 215.94 54.282">
  <defs>
    <style>
      .cls-1 {
        fill: #000;
        fill-rule: evenodd;
      }
    </style>
  </defs>
  <path d="M202.449,14.498 C198.738,14.498 196.297,17.330 196.297,21.139 C196.297,25.485 200.155,27.584 204.158,29.098 C211.043,31.930 215.926,35.250 215.926,41.598 C215.926,49.947 208.065,54.293 200.740,54.293 C195.906,54.293 191.561,52.486 190.096,51.119 C189.363,49.752 188.485,43.502 188.485,40.231 L191.365,39.791 C192.928,46.041 196.834,51.119 202.449,51.119 C205.867,51.119 209.334,48.434 209.334,44.332 C209.334,40.231 206.258,38.082 201.961,35.983 C195.809,33.199 190.194,30.367 190.194,23.287 C190.194,16.940 195.662,11.520 204.061,11.520 C207.869,11.520 210.311,12.350 212.215,13.131 C213.143,15.231 214.022,20.504 214.412,23.043 L211.678,23.775 C209.969,18.063 206.893,14.498 202.449,14.498 ZM145.387,54.293 C139.772,54.293 136.647,50.582 136.647,43.404 L136.647,16.402 L130.055,16.402 L129.665,15.328 L132.204,12.594 L136.647,12.594 L136.647,6.051 L141.725,-0.004 L143.092,0.192 L143.092,12.594 L153.883,12.594 C154.811,13.522 154.518,15.572 153.346,16.402 L143.092,16.402 L143.092,40.182 C143.092,47.604 146.168,49.069 148.561,49.069 C151.002,49.069 153.346,48.043 154.518,47.408 L155.446,49.850 L149.635,53.024 C147.926,53.951 146.364,54.293 145.387,54.293 ZM92.524,20.113 C91.255,18.697 90.132,18.209 88.716,18.209 C86.079,18.209 82.710,21.383 80.708,26.949 L80.708,43.356 C80.708,49.508 81.099,50.143 88.423,50.582 L88.423,53.219 L67.475,53.219 L67.475,50.582 C73.579,50.143 74.214,49.508 74.214,43.404 L74.214,24.557 C74.214,18.307 73.823,18.063 68.305,17.428 L68.305,15.035 C72.554,14.303 76.557,13.131 80.708,11.227 L80.708,21.285 L80.903,21.285 C83.686,16.696 87.593,11.520 92.329,11.520 C95.601,11.520 97.651,13.863 97.651,16.061 C97.651,17.672 96.772,19.381 94.966,20.309 C93.843,20.651 93.159,20.602 92.524,20.113 ZM24.573,52.682 C23.206,51.315 22.669,49.947 22.279,48.434 C18.421,50.973 14.124,54.293 10.902,54.293 C4.603,54.293 0.013,48.971 0.013,42.867 C0.013,38.522 2.454,35.250 7.728,33.639 C13.343,31.734 20.130,29.098 22.132,27.633 L22.132,26.315 C22.132,19.479 18.665,15.670 13.978,15.670 C11.976,15.670 10.413,16.500 9.535,17.574 C8.363,18.942 7.630,20.748 6.702,23.580 C6.458,24.947 5.433,25.582 4.066,25.582 C2.650,25.582 0.257,23.824 0.257,21.676 C0.257,20.309 1.624,19.235 3.333,17.965 C5.628,16.207 11.536,12.594 16.956,11.520 C19.593,11.520 22.474,12.350 24.378,14.059 C27.454,16.696 28.480,20.406 28.480,25.094 L28.480,42.623 C28.480,46.774 29.994,48.238 31.751,48.238 C32.825,48.238 34.193,47.604 35.072,47.164 L36.097,49.752 L28.578,54.293 C27.357,54.293 25.403,53.512 24.573,52.682 ZM22.132,30.904 C20.033,31.930 15.052,34.078 12.952,35.006 C9.144,36.617 7.093,38.424 7.093,41.891 C7.093,46.529 10.902,48.873 13.978,48.873 C16.517,48.873 20.325,46.774 22.132,45.162 L22.132,30.904 Z" class="cls-1"/>
</svg>
