<svg xmlns="http://www.w3.org/2000/svg" xmlns:xlink="http://www.w3.org/1999/xlink" preserveAspectRatio="xMidYMid" width="140.969" height="120" viewBox="0 0 140.969 120">
  <defs>
    <style>
      .cls-1 {
        fill: #000;
        filter: url(#drop-shadow-1);
        fill-rule: evenodd;
      }
    </style>

    <filter id="drop-shadow-1" filterUnits="userSpaceOnUse">
      <feOffset dx="9.661" dy="8.699" in="SourceAlpha"/>
      <feGaussianBlur stdDeviation="2.646" result="dropBlur"/>
      <feFlood flood-opacity="0.35"/>
      <feComposite operator="in" in2="dropBlur" result="dropShadowComp"/>
      <feComposite in="SourceGraphic" result="shadowed"/>
    </filter>
  </defs>
  <path d="M129.223,8.640 C118.090,9.665 105.052,10.454 91.722,10.848 C83.811,8.562 74.289,7.221 65.646,7.221 L65.353,7.221 C44.405,7.221 15.839,15.106 15.839,32.136 C15.839,42.465 28.144,49.246 39.278,51.848 C34.883,54.923 26.240,59.023 15.839,61.073 C15.546,62.413 16.425,65.015 18.623,67.065 C22.138,70.140 29.463,73.688 38.985,75.107 C32.686,77.788 21.552,82.755 16.425,85.673 C12.031,88.038 9.833,91.271 9.833,94.346 C10.126,103.097 27.559,112.795 58.029,112.795 C94.505,112.795 126.587,98.603 126.587,83.623 C126.587,68.957 104.466,65.803 86.887,65.803 C77.366,65.803 67.258,65.882 56.124,65.882 C43.819,65.882 39.278,63.280 39.278,60.363 C39.278,58.313 44.112,55.396 48.214,53.740 C53.048,54.213 58.322,54.529 62.423,54.529 C86.594,54.529 111.058,46.565 111.058,30.481 C111.058,25.198 108.129,20.231 102.855,16.998 L118.383,17.629 C122.778,16.446 128.784,12.504 131.128,9.981 L129.223,8.640 ZM62.423,11.873 C78.098,11.873 89.817,19.837 89.817,31.821 C89.817,43.254 78.098,49.404 65.353,49.482 C49.825,49.482 37.959,41.440 37.959,29.929 C37.959,18.496 49.532,11.873 62.130,11.873 L62.423,11.873 ZM69.748,75.423 C81.614,75.423 89.817,75.896 96.849,77.630 C104.466,79.365 108.861,83.307 108.861,88.196 C108.861,97.578 94.798,104.832 67.551,104.832 C47.188,104.832 30.781,99.313 30.781,91.113 C30.781,86.698 36.202,82.282 44.405,78.971 C49.825,76.448 56.124,75.423 69.455,75.423 L69.748,75.423 Z" class="cls-1"/>
</svg>
