<svg xmlns="http://www.w3.org/2000/svg" xmlns:xlink="http://www.w3.org/1999/xlink" preserveAspectRatio="xMidYMid" width="2412.027" height="107.062" viewBox="0 0 2412.027 107.062">
  <defs>
    <style>
      .cls-1 {
        fill: #000;
        fill-rule: evenodd;
      }
    </style>
  </defs>
  <path d="M2341.869,70.571 C2333.373,70.334 2326.048,68.836 2322.239,67.654 L2322.239,86.734 C2322.239,98.088 2324.144,98.877 2346.118,99.902 L2346.118,104.238 L2281.954,104.238 L2281.954,99.902 C2300.266,98.877 2302.610,98.088 2302.610,87.996 L2302.610,21.687 C2302.610,11.752 2301.877,11.437 2283.419,10.412 L2283.419,6.312 C2294.846,5.287 2310.081,2.685 2322.239,0.004 L2322.239,12.068 L2349.194,3.710 C2353.589,2.054 2359.009,1.502 2362.817,1.502 C2392.995,1.502 2412.039,14.827 2412.039,29.887 C2412.039,52.910 2378.345,67.259 2341.869,70.571 ZM2352.417,10.254 C2343.188,10.254 2330.736,14.118 2322.239,17.429 L2322.239,57.246 C2328.539,60.636 2338.500,63.002 2348.901,63.002 C2374.537,63.002 2390.504,51.884 2390.504,35.327 C2390.504,19.321 2373.365,10.254 2352.417,10.254 ZM1794.488,70.571 L1792.584,69.704 L1792.584,59.060 C1785.699,61.977 1779.253,64.579 1770.757,67.102 C1762.700,69.546 1757.426,70.571 1750.102,70.571 C1732.523,70.571 1715.530,64.894 1715.530,47.863 L1715.530,19.479 C1715.530,11.121 1713.186,10.412 1706.594,9.702 L1697.951,8.835 L1697.951,4.893 C1703.957,4.735 1710.109,4.262 1717.434,3.946 C1724.905,3.237 1732.523,2.685 1736.038,2.054 C1735.159,7.021 1735.159,14.354 1735.159,24.210 L1735.159,43.921 C1735.159,57.877 1747.904,61.346 1760.942,61.346 C1771.636,61.346 1782.183,58.902 1792.584,53.619 L1792.584,19.479 C1792.584,11.121 1789.801,10.412 1780.279,9.702 L1770.024,8.835 L1770.024,4.893 C1777.349,4.735 1787.457,4.262 1795.074,3.868 C1802.692,3.237 1808.844,2.685 1812.360,2.054 L1812.360,52.121 C1812.360,59.769 1814.851,60.636 1825.691,60.952 L1833.601,61.109 L1833.601,65.288 C1827.888,65.761 1820.271,66.471 1812.946,67.654 C1805.915,68.679 1798.883,69.704 1794.488,70.571 ZM1179.575,70.571 C1142.073,70.571 1119.221,54.171 1119.221,37.535 C1119.221,12.462 1154.818,1.502 1179.282,1.502 L1179.575,1.502 C1213.121,1.502 1239.490,16.167 1239.490,34.854 C1239.490,59.454 1206.236,70.571 1179.575,70.571 ZM1215.758,37.929 C1215.758,21.292 1201.988,6.785 1176.645,6.785 C1158.920,6.785 1142.952,15.852 1142.952,32.804 C1142.952,51.569 1158.627,65.288 1182.944,65.288 C1201.109,65.288 1215.758,57.877 1215.758,37.929 ZM650.796,15.379 C646.987,13.093 643.618,12.304 639.370,12.304 C631.459,12.304 621.352,17.429 615.345,26.417 L615.345,52.910 C615.345,62.844 616.517,63.869 638.491,64.579 L638.491,68.836 L575.646,68.836 L575.646,64.579 C593.958,63.869 595.862,62.844 595.862,52.988 L595.862,22.554 C595.862,12.462 594.690,12.068 578.137,11.042 L578.137,7.179 C590.881,5.996 602.894,4.104 615.345,1.029 L615.345,17.271 L615.931,17.271 C624.281,9.860 636.000,1.502 650.210,1.502 C660.025,1.502 666.178,5.287 666.178,8.835 C666.178,11.437 663.541,14.196 658.121,15.694 C654.751,16.246 652.701,16.167 650.796,15.379 ZM93.014,11.279 C98.287,14.512 101.217,19.479 101.217,24.762 C101.217,40.846 76.753,48.810 52.582,48.810 C48.480,48.810 43.207,48.494 38.373,48.021 C34.271,49.677 29.437,52.594 29.437,54.644 C29.437,57.561 33.978,60.163 46.283,60.163 C57.417,60.163 67.524,60.084 77.046,60.084 C94.625,60.084 116.745,63.238 116.745,77.904 C116.745,92.884 84.664,107.076 48.188,107.076 C17.717,107.076 0.285,97.378 -0.008,88.627 C-0.008,85.552 2.189,82.319 6.584,79.954 C11.711,77.036 22.845,72.069 29.144,69.388 C19.622,67.969 12.297,64.421 8.781,61.346 C6.584,59.296 5.705,56.694 5.998,55.354 C16.399,53.304 25.042,49.204 29.437,46.129 C18.303,43.527 5.998,36.746 5.998,26.417 C5.998,9.387 34.564,1.502 55.512,1.502 L55.805,1.502 C64.448,1.502 73.970,2.843 81.880,5.129 C95.211,4.735 108.249,3.946 119.382,2.921 L121.287,4.262 C118.943,6.785 112.937,10.727 108.542,11.910 L93.014,11.279 ZM20.940,85.394 C20.940,93.594 37.347,99.113 57.709,99.113 C84.957,99.113 99.020,91.859 99.020,82.477 C99.020,77.588 94.625,73.646 87.008,71.911 C79.976,70.177 71.773,69.704 59.907,69.704 L59.614,69.704 C46.283,69.704 39.984,70.729 34.564,73.252 C26.360,76.563 20.940,80.979 20.940,85.394 ZM52.582,6.154 L52.289,6.154 C39.691,6.154 28.118,12.777 28.118,24.210 C28.118,35.721 39.984,43.763 55.512,43.763 C68.257,43.685 79.976,37.535 79.976,26.102 C79.976,14.118 68.257,6.154 52.582,6.154 Z" class="cls-1"/>
</svg>
