<svg xmlns="http://www.w3.org/2000/svg" xmlns:xlink="http://www.w3.org/1999/xlink" preserveAspectRatio="xMidYMid" width="655.84" height="60.25" viewBox="0 0 655.84 60.25">
  <defs>
    <style>
      .cls-1 {
        fill: #000;
        fill-rule: evenodd;
      }
    </style>
  </defs>
  <path d="M636.811,59.187 L636.811,56.550 C642.524,55.915 643.256,55.183 643.256,48.933 L643.256,33.699 C643.256,27.204 641.108,22.810 634.467,22.810 C630.463,22.810 626.606,25.300 623.676,27.986 L623.676,49.324 C623.676,55.720 624.116,55.915 630.024,56.550 L630.024,59.187 L610.346,59.187 L610.346,56.550 C616.596,55.915 617.182,55.378 617.182,49.372 L617.182,30.525 C617.182,24.568 616.547,24.177 611.469,23.396 L611.469,21.003 C615.912,20.222 620.063,19.099 623.676,17.195 L623.676,24.568 C625.483,23.200 627.485,21.931 629.828,20.271 C632.368,18.757 635.004,17.488 637.836,17.488 C645.063,17.488 649.702,22.566 649.702,31.453 L649.702,49.324 C649.702,55.671 650.239,55.915 655.854,56.550 L655.854,59.187 L636.811,59.187 ZM556.507,60.261 C544.007,60.261 536.389,50.105 536.389,39.802 C536.389,24.275 548.255,17.488 556.409,17.488 L556.507,17.488 C567.688,17.488 576.477,26.570 576.477,38.142 C576.477,53.376 565.393,60.261 556.507,60.261 ZM568.567,40.046 C568.567,29.743 563.977,20.759 555.530,20.759 C549.622,20.759 544.300,26.374 544.300,36.872 C544.300,48.494 549.524,56.990 557.630,56.990 C563.684,56.990 568.567,52.400 568.567,40.046 ZM482.501,56.550 C488.507,56.111 489.239,55.476 489.239,49.324 L489.239,30.183 C489.239,24.568 489.044,24.177 483.136,23.396 L483.136,21.003 C487.872,20.124 491.925,19.001 495.733,17.195 L495.733,49.324 C495.733,55.476 496.368,56.111 502.472,56.550 L502.472,59.187 L482.501,59.187 L482.501,56.550 ZM491.925,9.236 C489.484,9.236 487.384,7.038 487.384,4.695 C487.384,1.960 489.484,0.007 492.023,0.007 C494.464,0.007 496.368,1.960 496.368,4.695 C496.368,7.038 494.464,9.236 491.925,9.236 ZM439.550,60.261 C433.935,60.261 430.810,56.550 430.810,49.372 L430.810,22.370 L424.218,22.370 L423.828,21.296 L426.367,18.562 L430.810,18.562 L430.810,12.019 L435.888,5.964 L437.255,6.160 L437.255,18.562 L448.046,18.562 C448.974,19.490 448.681,21.540 447.509,22.370 L437.255,22.370 L437.255,46.150 C437.255,53.572 440.332,55.037 442.724,55.037 C445.166,55.037 447.509,54.011 448.681,53.376 L449.609,55.818 L443.798,58.992 C442.090,59.919 440.527,60.261 439.550,60.261 ZM383.221,58.650 C381.854,57.283 381.316,55.915 380.926,54.402 C377.068,56.941 372.771,60.261 369.549,60.261 C363.250,60.261 358.660,54.939 358.660,48.835 C358.660,44.490 361.102,41.218 366.375,39.607 C371.990,37.702 378.777,35.066 380.779,33.601 L380.779,32.283 C380.779,25.447 377.313,21.638 372.625,21.638 C370.623,21.638 369.060,22.468 368.182,23.542 C367.010,24.910 366.277,26.716 365.350,29.548 C365.105,30.915 364.080,31.550 362.713,31.550 C361.297,31.550 358.904,29.792 358.904,27.644 C358.904,26.277 360.271,25.203 361.980,23.933 C364.275,22.175 370.184,18.562 375.603,17.488 C378.240,17.488 381.121,18.318 383.025,20.027 C386.102,22.664 387.127,26.374 387.127,31.062 L387.127,48.591 C387.127,52.742 388.641,54.206 390.399,54.206 C391.473,54.206 392.840,53.572 393.719,53.132 L394.744,55.720 L387.224,60.261 C386.004,60.261 384.051,59.480 383.221,58.650 ZM380.779,36.872 C378.680,37.898 373.699,40.046 371.600,40.974 C367.791,42.585 365.740,44.392 365.740,47.859 C365.740,52.497 369.549,54.841 372.625,54.841 C375.164,54.841 378.973,52.742 380.779,51.130 L380.779,36.872 ZM319.127,28.083 C315.953,35.066 311.315,46.296 306.041,60.115 L303.405,60.115 C299.450,49.128 295.250,38.777 290.709,27.888 C288.561,22.468 287.828,21.736 282.848,21.199 L282.848,18.562 L301.256,18.562 L301.256,21.199 C295.983,21.638 295.788,22.370 297.545,26.472 C299.889,32.917 303.795,42.781 306.481,49.763 C309.948,41.609 312.926,33.357 314.928,27.449 C316.588,22.810 315.856,21.736 310.680,21.199 L310.680,18.562 L327.428,18.562 L327.428,21.199 C322.350,21.638 321.666,22.566 319.127,28.083 ZM232.573,60.261 C220.073,60.261 212.456,50.105 212.456,39.802 C212.456,24.275 224.321,17.488 232.475,17.488 L232.573,17.488 C243.755,17.488 252.544,26.570 252.544,38.142 C252.544,53.376 241.460,60.261 232.573,60.261 ZM244.634,40.046 C244.634,29.743 240.044,20.759 231.597,20.759 C225.688,20.759 220.366,26.374 220.366,36.872 C220.366,48.494 225.591,56.990 233.696,56.990 C239.751,56.990 244.634,52.400 244.634,40.046 ZM158.909,56.550 C164.622,55.915 165.355,55.183 165.355,48.933 L165.355,33.699 C165.355,27.204 163.206,22.810 156.566,22.810 C152.562,22.810 148.704,25.300 145.775,27.986 L145.775,49.324 C145.775,55.720 146.214,55.915 152.122,56.550 L152.122,59.187 L132.445,59.187 L132.445,56.550 C138.694,55.915 139.280,55.378 139.280,49.372 L139.280,30.525 C139.280,24.568 138.646,24.177 133.567,23.396 L133.567,21.003 C138.011,20.222 142.161,19.099 145.775,17.195 L145.775,24.568 C147.581,23.200 149.583,21.931 151.927,20.271 C154.466,18.757 157.103,17.488 159.935,17.488 C167.161,17.488 171.800,22.566 171.800,31.453 L171.800,49.324 C171.800,55.671 172.337,55.915 177.952,56.550 L177.952,59.187 L158.909,59.187 L158.909,56.550 ZM79.630,56.550 C85.343,55.915 86.076,55.183 86.076,48.933 L86.076,33.699 C86.076,27.204 83.927,22.810 77.287,22.810 C73.283,22.810 69.425,25.300 66.496,27.986 L66.496,49.324 C66.496,55.720 66.935,55.915 72.843,56.550 L72.843,59.187 L53.166,59.187 L53.166,56.550 C59.416,55.915 60.002,55.378 60.002,49.372 L60.002,30.525 C60.002,24.568 59.367,24.177 54.289,23.396 L54.289,21.003 C58.732,20.222 62.882,19.099 66.496,17.195 L66.496,24.568 C68.302,23.200 70.304,21.931 72.648,20.271 C75.187,18.757 77.824,17.488 80.656,17.488 C87.882,17.488 92.521,22.566 92.521,31.453 L92.521,49.324 C92.521,55.671 93.058,55.915 98.673,56.550 L98.673,59.187 L79.630,59.187 L79.630,56.550 ZM0.010,56.550 C6.016,56.111 6.748,55.476 6.748,49.324 L6.748,30.183 C6.748,24.568 6.553,24.177 0.645,23.396 L0.645,21.003 C5.381,20.124 9.434,19.001 13.242,17.195 L13.242,49.324 C13.242,55.476 13.877,56.111 19.980,56.550 L19.980,59.187 L0.010,59.187 L0.010,56.550 ZM9.434,9.236 C6.992,9.236 4.893,7.038 4.893,4.695 C4.893,1.960 6.992,0.007 9.531,0.007 C11.973,0.007 13.877,1.960 13.877,4.695 C13.877,7.038 11.973,9.236 9.434,9.236 Z" class="cls-1"/>
</svg>
