<svg xmlns="http://www.w3.org/2000/svg" xmlns:xlink="http://www.w3.org/1999/xlink" preserveAspectRatio="xMidYMid" width="670.84" height="60.25" viewBox="0 0 670.84 60.25">
  <defs>
    <style>
      .cls-1 {
        fill: #000;
        fill-rule: evenodd;
      }
    </style>
  </defs>
  <path d="M668.900,34.870 C667.436,35.066 655.570,35.994 644.242,36.335 C644.291,48.933 651.762,54.206 658.109,54.206 C661.967,54.206 665.336,52.546 668.803,49.470 L670.414,51.765 C664.457,58.747 658.256,60.261 655.375,60.261 C644.291,60.261 637.602,51.033 637.602,40.535 C637.602,34.187 639.799,28.376 643.607,24.177 C647.319,20.027 652.299,17.488 656.889,17.488 L656.987,17.488 C664.701,17.488 670.854,24.275 670.854,31.697 C670.854,33.796 670.512,34.431 668.900,34.870 ZM654.936,21.101 L654.838,21.101 C650.492,21.101 646.293,25.007 644.584,32.331 C650.004,32.429 655.375,32.331 661.088,32.185 C662.895,32.087 663.432,31.550 663.432,30.183 C663.432,25.300 660.063,21.101 654.936,21.101 ZM599.143,28.083 C595.969,35.066 591.330,46.296 586.057,60.115 L583.420,60.115 C579.465,49.128 575.266,38.777 570.725,27.888 C568.577,22.468 567.844,21.736 562.864,21.199 L562.864,18.562 L581.272,18.562 L581.272,21.199 C575.998,21.638 575.803,22.370 577.561,26.472 C579.905,32.917 583.811,42.781 586.497,49.763 C589.963,41.609 592.942,33.357 594.944,27.449 C596.604,22.810 595.872,21.736 590.696,21.199 L590.696,18.562 L607.444,18.562 L607.444,21.199 C602.366,21.638 601.682,22.566 599.143,28.083 ZM513.370,56.550 C519.376,56.111 520.108,55.476 520.108,49.324 L520.108,30.183 C520.108,24.568 519.913,24.177 514.005,23.396 L514.005,21.003 C518.741,20.124 522.794,19.001 526.602,17.195 L526.602,49.324 C526.602,55.476 527.237,56.111 533.341,56.550 L533.341,59.187 L513.370,59.187 L513.370,56.550 ZM522.794,9.236 C520.352,9.236 518.253,7.038 518.253,4.695 C518.253,1.960 520.352,0.007 522.891,0.007 C525.333,0.007 527.237,1.960 527.237,4.695 C527.237,7.038 525.333,9.236 522.794,9.236 ZM470.419,60.261 C464.804,60.261 461.679,56.550 461.679,49.372 L461.679,22.370 L455.087,22.370 L454.697,21.296 L457.236,18.562 L461.679,18.562 L461.679,12.019 L466.757,5.964 L468.124,6.160 L468.124,18.562 L478.915,18.562 C479.843,19.490 479.550,21.540 478.378,22.370 L468.124,22.370 L468.124,46.150 C468.124,53.572 471.200,55.037 473.593,55.037 C476.034,55.037 478.378,54.011 479.550,53.376 L480.478,55.818 L474.667,58.992 C472.958,59.919 471.396,60.261 470.419,60.261 ZM408.963,54.206 C412.869,54.206 415.945,53.035 420.388,48.738 L422.097,51.130 C417.996,56.208 411.746,60.261 406.326,60.261 C394.705,60.261 387.918,50.837 387.918,40.876 C387.918,33.601 390.994,27.449 397.146,22.664 C401.785,19.099 407.303,17.488 410.867,17.488 L410.965,17.488 C414.920,17.488 417.996,18.855 419.363,20.027 C420.633,21.003 420.925,21.638 420.925,22.664 C420.925,24.568 418.826,26.570 417.947,26.570 C417.361,26.570 416.922,26.472 416.189,25.740 C413.504,23.103 410.134,22.029 406.961,22.029 C400.320,22.029 394.802,27.742 394.802,37.165 C394.705,49.958 403.347,54.206 408.963,54.206 ZM343.404,58.650 C342.037,57.283 341.500,55.915 341.109,54.402 C337.252,56.941 332.955,60.261 329.732,60.261 C323.434,60.261 318.844,54.939 318.844,48.835 C318.844,44.490 321.285,41.218 326.559,39.607 C332.174,37.702 338.961,35.066 340.963,33.601 L340.963,32.283 C340.963,25.447 337.496,21.638 332.809,21.638 C330.807,21.638 329.244,22.468 328.365,23.542 C327.193,24.910 326.461,26.716 325.533,29.548 C325.289,30.915 324.264,31.550 322.897,31.550 C321.481,31.550 319.088,29.792 319.088,27.644 C319.088,26.277 320.455,25.203 322.164,23.933 C324.459,22.175 330.367,18.562 335.787,17.488 C338.424,17.488 341.305,18.318 343.209,20.027 C346.285,22.664 347.311,26.374 347.311,31.062 L347.311,48.591 C347.311,52.742 348.824,54.206 350.582,54.206 C351.656,54.206 353.024,53.572 353.902,53.132 L354.928,55.720 L347.408,60.261 C346.188,60.261 344.234,59.480 343.404,58.650 ZM340.963,36.872 C338.863,37.898 333.883,40.046 331.783,40.974 C327.975,42.585 325.924,44.392 325.924,47.859 C325.924,52.497 329.732,54.841 332.809,54.841 C335.348,54.841 339.156,52.742 340.963,51.130 L340.963,36.872 ZM280.288,26.081 C279.018,24.665 277.895,24.177 276.479,24.177 C273.842,24.177 270.473,27.351 268.471,32.917 L268.471,49.324 C268.471,55.476 268.862,56.111 276.186,56.550 L276.186,59.187 L255.239,59.187 L255.239,56.550 C261.342,56.111 261.977,55.476 261.977,49.372 L261.977,30.525 C261.977,24.275 261.586,24.031 256.069,23.396 L256.069,21.003 C260.317,20.271 264.321,19.099 268.471,17.195 L268.471,27.253 L268.666,27.253 C271.450,22.664 275.356,17.488 280.092,17.488 C283.364,17.488 285.414,19.831 285.414,22.029 C285.414,23.640 284.536,25.349 282.729,26.277 C281.606,26.619 280.922,26.570 280.288,26.081 ZM194.417,36.335 C194.466,48.933 201.937,54.206 208.284,54.206 C212.142,54.206 215.511,52.546 218.977,49.470 L220.589,51.765 C214.632,58.747 208.431,60.261 205.550,60.261 C194.466,60.261 187.776,51.033 187.776,40.535 C187.776,34.187 189.973,28.376 193.782,24.177 C197.493,20.027 202.473,17.488 207.063,17.488 L207.161,17.488 C214.876,17.488 221.028,24.275 221.028,31.697 C221.028,33.796 220.686,34.431 219.075,34.870 C217.610,35.066 205.745,35.994 194.417,36.335 ZM205.110,21.101 L205.013,21.101 C200.667,21.101 196.468,25.007 194.759,32.331 C200.179,32.429 205.550,32.331 211.262,32.185 C213.069,32.087 213.606,31.550 213.606,30.183 C213.606,25.300 210.237,21.101 205.110,21.101 ZM144.777,60.261 C139.161,60.261 136.036,56.550 136.036,49.372 L136.036,22.370 L129.445,22.370 L129.054,21.296 L131.593,18.562 L136.036,18.562 L136.036,12.019 L141.115,5.964 L142.482,6.160 L142.482,18.562 L153.273,18.562 C154.201,19.490 153.908,21.540 152.736,22.370 L142.482,22.370 L142.482,46.150 C142.482,53.572 145.558,55.037 147.950,55.037 C150.392,55.037 152.736,54.011 153.908,53.376 L154.835,55.818 L149.025,58.992 C147.316,59.919 145.753,60.261 144.777,60.261 ZM79.609,56.550 C85.322,55.915 86.054,55.183 86.054,48.933 L86.054,33.699 C86.054,27.204 83.906,22.810 77.265,22.810 C73.261,22.810 69.404,25.300 66.474,27.986 L66.474,49.324 C66.474,55.720 66.914,55.915 72.822,56.550 L72.822,59.187 L53.144,59.187 L53.144,56.550 C59.394,55.915 59.980,55.378 59.980,49.372 L59.980,30.525 C59.980,24.568 59.345,24.177 54.267,23.396 L54.267,21.003 C58.711,20.222 62.861,19.099 66.474,17.195 L66.474,24.568 C68.281,23.200 70.283,21.931 72.627,20.271 C75.166,18.757 77.802,17.488 80.634,17.488 C87.861,17.488 92.500,22.566 92.500,31.453 L92.500,49.324 C92.500,55.671 93.037,55.915 98.652,56.550 L98.652,59.187 L79.609,59.187 L79.609,56.550 ZM-0.012,56.550 C5.994,56.111 6.727,55.476 6.727,49.324 L6.727,30.183 C6.727,24.568 6.531,24.177 0.623,23.396 L0.623,21.003 C5.359,20.124 9.412,19.001 13.221,17.195 L13.221,49.324 C13.221,55.476 13.856,56.111 19.959,56.550 L19.959,59.187 L-0.012,59.187 L-0.012,56.550 ZM9.412,9.236 C6.971,9.236 4.871,7.038 4.871,4.695 C4.871,1.960 6.971,0.007 9.510,0.007 C11.951,0.007 13.856,1.960 13.856,4.695 C13.856,7.038 11.951,9.236 9.412,9.236 Z" class="cls-1"/>
</svg>
