<svg xmlns="http://www.w3.org/2000/svg" xmlns:xlink="http://www.w3.org/1999/xlink" preserveAspectRatio="xMidYMid" width="341.16" height="66.875" viewBox="0 0 341.16 66.875">
  <defs>
    <style>
      .cls-1 {
        fill: #000;
        fill-rule: evenodd;
      }
    </style>
  </defs>
  <path d="M333.638,66.886 C332.417,66.886 330.464,66.105 329.634,65.275 C328.267,63.908 327.730,62.540 327.339,61.027 C323.481,63.566 319.185,66.886 315.962,66.886 C309.663,66.886 305.073,61.564 305.073,55.460 C305.073,51.115 307.515,47.843 312.788,46.232 C318.403,44.327 325.190,41.691 327.193,40.226 L327.193,38.908 C327.193,32.072 323.726,28.263 319.038,28.263 C317.036,28.263 315.474,29.093 314.595,30.167 C313.423,31.535 312.690,33.341 311.763,36.173 C311.519,37.540 310.493,38.175 309.126,38.175 C307.710,38.175 305.317,36.417 305.317,34.269 C305.317,32.902 306.685,31.828 308.394,30.558 C310.689,28.800 316.597,25.187 322.017,24.113 C324.653,24.113 327.534,24.943 329.439,26.652 C332.515,29.289 333.540,32.999 333.540,37.687 L333.540,55.216 C333.540,59.367 335.054,60.831 336.812,60.831 C337.886,60.831 339.253,60.197 340.132,59.757 L341.157,62.345 L333.638,66.886 ZM327.193,43.497 C325.093,44.523 320.112,46.671 318.013,47.599 C314.204,49.210 312.153,51.017 312.153,54.484 C312.153,59.122 315.962,61.466 319.038,61.466 C321.577,61.466 325.386,59.367 327.193,57.755 L327.193,43.497 ZM250.892,63.175 C256.898,62.736 257.630,62.101 257.630,55.949 L257.630,36.808 C257.630,31.193 257.435,30.802 251.527,30.021 L251.527,27.628 C256.263,26.749 260.316,25.626 264.124,23.820 L264.124,55.949 C264.124,62.101 264.759,62.736 270.863,63.175 L270.863,65.812 L250.892,65.812 L250.892,63.175 ZM260.316,15.861 C257.874,15.861 255.775,13.663 255.775,11.320 C255.775,8.585 257.874,6.632 260.413,6.632 C262.855,6.632 264.759,8.585 264.759,11.320 C264.759,13.663 262.855,15.861 260.316,15.861 ZM204.377,66.886 L204.377,60.831 L198.664,64.103 C194.855,66.251 192.072,66.886 191.047,66.886 C183.723,66.886 174.201,60.099 174.201,47.160 C174.201,34.269 185.627,24.113 197.834,24.113 C199.299,24.113 202.375,24.357 204.377,25.382 L204.377,12.589 C204.377,6.437 204.035,6.144 197.052,5.802 L197.052,3.361 C201.740,2.628 207.844,1.066 211.017,-0.008 L211.017,55.119 C211.017,59.806 211.750,60.197 215.070,60.441 L218.244,60.831 L218.244,63.468 C216.242,63.810 209.455,64.982 204.377,66.886 ZM204.377,32.462 C201.838,29.191 197.834,27.824 194.416,27.824 C189.777,27.824 181.818,31.535 181.818,44.621 C181.818,55.460 188.508,61.076 194.758,61.076 C198.322,61.076 202.033,59.269 204.377,57.755 L204.377,32.462 ZM112.549,42.960 C112.598,55.558 120.069,60.831 126.416,60.831 C130.274,60.831 133.643,59.171 137.110,56.095 L138.721,58.390 C132.764,65.372 126.563,66.886 123.682,66.886 C112.598,66.886 105.908,57.658 105.908,47.160 C105.908,40.812 108.106,35.001 111.914,30.802 C115.625,26.652 120.606,24.113 125.196,24.113 L125.293,24.113 C133.008,24.113 139.161,30.900 139.161,38.322 C139.161,40.421 138.819,41.056 137.207,41.495 C135.743,41.691 123.877,42.619 112.549,42.960 ZM123.242,27.726 L123.145,27.726 C118.799,27.726 114.600,31.632 112.891,38.956 C118.311,39.054 123.682,38.956 129.395,38.810 C131.201,38.712 131.739,38.175 131.739,36.808 C131.739,31.925 128.369,27.726 123.242,27.726 ZM51.874,63.175 C57.489,62.736 58.563,62.199 58.563,55.753 L58.563,40.421 C58.563,34.074 56.512,29.435 50.214,29.435 C46.503,29.435 42.792,31.730 39.178,34.708 C39.374,35.783 39.471,36.808 39.471,38.615 L39.471,56.193 C39.471,62.101 40.350,62.736 45.721,63.175 L45.721,65.812 L25.946,65.812 L25.946,63.175 C31.903,62.736 32.928,62.101 32.928,55.997 L32.928,40.421 C32.928,33.439 30.487,29.435 24.579,29.435 C20.477,29.435 16.522,32.462 13.690,34.708 L13.690,55.997 C13.690,62.101 14.520,62.736 19.159,63.175 L19.159,65.812 L0.018,65.812 L0.018,63.175 C6.268,62.736 7.196,62.101 7.196,55.997 L7.196,37.150 C7.196,31.095 6.903,30.802 1.288,30.021 L1.288,27.628 C5.340,26.896 9.979,25.724 13.690,23.820 L13.690,31.535 C15.594,30.070 17.694,28.263 20.770,26.456 C22.870,25.089 25.018,24.113 28.192,24.113 C32.538,24.113 36.444,26.896 38.446,31.925 C41.278,29.630 43.964,27.921 46.258,26.359 C48.163,25.187 50.604,24.113 53.387,24.113 C60.370,24.113 65.204,29.191 65.204,38.273 L65.204,55.997 C65.204,62.296 65.936,62.736 71.356,63.175 L71.356,65.812 L51.874,65.812 L51.874,63.175 Z" class="cls-1"/>
</svg>
