<svg xmlns="http://www.w3.org/2000/svg" xmlns:xlink="http://www.w3.org/1999/xlink" preserveAspectRatio="xMidYMid" width="303.25" height="277" viewBox="0 0 303.25 277">
  <defs>
    <style>
      .cls-1 {
        fill: #000;
        filter: url(#drop-shadow-1);
        fill-rule: evenodd;
      }
    </style>

    <filter id="drop-shadow-1" filterUnits="userSpaceOnUse">
      <feOffset dx="11.89" dy="10.706" in="SourceAlpha"/>
      <feGaussianBlur stdDeviation="2.646" result="dropBlur"/>
      <feFlood flood-opacity="0.35"/>
      <feComposite operator="in" in2="dropBlur" result="dropShadowComp"/>
      <feComposite in="SourceGraphic" result="shadowed"/>
    </filter>
  </defs>
  <path d="M292.227,6.675 L194.896,6.675 L194.896,18.947 C222.403,20.005 232.136,25.083 234.887,43.280 C236.156,53.859 237.214,71.844 237.214,110.353 L237.214,210.857 L236.156,210.857 L68.790,6.675 L11.026,6.675 L11.026,18.947 C30.281,20.851 39.591,23.602 47.843,33.335 C55.037,43.280 55.883,43.280 55.883,72.690 L55.883,160.711 C55.883,196.893 54.190,216.359 53.132,229.054 C50.593,248.732 40.437,253.810 17.374,254.656 L17.374,267.140 L113.858,267.140 L113.858,254.656 C87.198,252.964 77.465,248.732 74.714,228.208 C74.291,216.359 73.022,196.893 73.022,160.711 L73.022,60.841 L73.868,60.841 L242.292,270.314 L254.988,270.314 L254.988,110.353 C254.988,71.844 255.834,53.859 256.469,41.587 C258.796,25.083 269.587,20.005 292.227,18.947 L292.227,6.675 Z" class="cls-1"/>
</svg>
