<svg xmlns="http://www.w3.org/2000/svg" xmlns:xlink="http://www.w3.org/1999/xlink" preserveAspectRatio="xMidYMid" width="210.063" height="43.063" viewBox="0 0 210.063 43.063">
  <defs>
    <style>
      .cls-1 {
        fill: #000;
        fill-rule: evenodd;
      }
    </style>
  </defs>
  <path d="M202.643,11.092 C199.713,18.611 195.758,30.379 191.559,42.928 L188.873,42.928 C185.065,32.576 181.354,23.494 177.594,13.728 C174.079,22.859 170.270,32.381 166.461,42.928 L163.629,42.928 C160.407,32.039 157.135,21.443 153.131,10.164 C151.520,5.281 150.592,4.451 146.051,4.012 L146.051,1.375 L164.655,1.375 L164.655,4.012 C159.235,4.842 158.747,5.379 160.114,9.822 C162.311,17.000 164.655,24.422 166.999,31.551 L167.194,31.551 C170.612,22.615 174.079,12.996 178.083,1.912 L180.719,1.912 C184.040,11.726 187.848,21.785 191.754,31.941 L192.047,31.941 C194.049,25.398 196.540,17.439 198.444,10.262 C199.713,5.183 199.176,4.744 193.219,4.012 L193.219,1.375 L210.065,1.375 L210.065,4.012 C205.377,4.744 204.645,5.818 202.643,11.092 ZM86.743,19.148 C86.792,31.746 94.263,37.019 100.610,37.019 C104.468,37.019 107.837,35.359 111.304,32.283 L112.915,34.578 C106.958,41.560 100.757,43.074 97.876,43.074 C86.792,43.074 80.102,33.846 80.102,23.348 C80.102,17.000 82.300,11.189 86.108,6.990 C89.819,2.840 94.800,0.301 99.390,0.301 L99.487,0.301 C107.202,0.301 113.354,7.088 113.354,14.510 C113.354,16.609 113.013,17.244 111.401,17.683 C109.936,17.879 98.071,18.807 86.743,19.148 ZM97.436,3.914 L97.339,3.914 C92.993,3.914 88.794,7.820 87.085,15.144 C92.505,15.242 97.876,15.144 103.589,14.998 C105.395,14.900 105.933,14.363 105.933,12.996 C105.933,8.113 102.563,3.914 97.436,3.914 ZM26.458,39.363 C32.171,38.728 32.904,37.996 32.904,31.746 L32.904,16.512 C32.904,10.017 30.755,5.623 24.115,5.623 C20.111,5.623 16.253,8.113 13.324,10.799 L13.324,32.137 C13.324,38.533 13.763,38.728 19.671,39.363 L19.671,42.000 L-0.007,42.000 L-0.007,39.363 C6.244,38.728 6.829,38.191 6.829,32.185 L6.829,13.338 C6.829,7.381 6.195,6.990 1.117,6.209 L1.117,3.816 C5.560,3.035 9.710,1.912 13.324,0.008 L13.324,7.381 C15.130,6.013 17.132,4.744 19.476,3.084 C22.015,1.570 24.652,0.301 27.484,0.301 C34.710,0.301 39.349,5.379 39.349,14.266 L39.349,32.137 C39.349,38.484 39.886,38.728 45.501,39.363 L45.501,42.000 L26.458,42.000 L26.458,39.363 Z" class="cls-1"/>
</svg>
