<svg xmlns="http://www.w3.org/2000/svg" xmlns:xlink="http://www.w3.org/1999/xlink" preserveAspectRatio="xMidYMid" width="2419.064" height="270" viewBox="0 0 2419.064 270">
  <defs>
    <style>
      .cls-1 {
        fill: #000;
        fill-rule: evenodd;
      }
    </style>
  </defs>
  <path d="M2419.061,254.344 L2419.061,266.828 L2314.960,266.828 L2314.960,254.344 C2348.391,252.228 2351.988,250.324 2351.988,216.047 L2351.988,56.721 C2351.988,22.867 2348.391,21.385 2314.960,18.635 L2314.960,6.363 L2419.061,6.363 L2419.061,18.635 C2386.053,21.385 2382.245,22.867 2382.245,56.721 L2382.245,216.047 C2382.245,250.747 2386.053,252.228 2419.061,254.344 ZM1885.968,254.344 C1913.051,251.170 1916.225,248.420 1911.147,232.974 L1889.142,172.459 L1801.121,172.459 C1795.197,188.752 1790.119,205.044 1784.194,221.548 C1775.096,248.420 1779.116,251.593 1809.373,254.344 L1809.373,266.828 L1720.929,266.828 L1720.929,254.344 C1746.743,250.747 1752.244,248.843 1766.421,212.661 L1848.517,4.035 L1860.789,0.015 C1885.122,66.877 1913.475,147.069 1938.442,214.989 C1949.868,248.420 1955.792,251.805 1982.241,254.344 L1982.241,266.828 L1885.968,266.828 L1885.968,254.344 ZM1847.036,49.103 L1846.189,49.103 C1833.283,84.439 1820.587,119.985 1808.104,154.051 L1883.218,154.051 L1847.036,49.103 ZM1287.071,254.344 C1320.502,251.593 1321.348,249.477 1321.348,205.044 L1319.444,42.544 L1318.598,42.544 L1219.151,263.654 L1210.899,263.654 L1120.974,48.469 L1120.128,48.469 L1114.626,164.208 C1112.722,198.908 1112.299,214.989 1112.722,229.800 C1113.992,248.843 1124.148,251.593 1150.385,253.921 L1150.385,266.828 L1055.805,266.828 L1055.805,253.921 C1078.868,251.593 1086.908,247.996 1089.871,229.800 C1091.986,216.470 1094.737,199.543 1097.488,157.225 L1102.989,73.859 C1106.374,22.867 1105.316,22.020 1068.289,18.635 L1068.289,6.363 L1132.400,6.363 L1224.229,209.487 L1319.021,6.363 L1386.517,6.363 L1386.517,18.635 C1350.759,22.020 1347.585,21.597 1349.278,65.184 L1352.875,205.044 C1353.933,249.477 1355.625,251.593 1390.961,254.344 L1390.961,266.828 L1287.071,266.828 L1287.071,254.344 ZM615.599,254.344 C649.030,252.228 652.627,250.324 652.627,216.047 L652.627,56.721 C652.627,22.867 649.030,21.385 615.599,18.635 L615.599,6.363 L719.701,6.363 L719.701,18.635 C686.693,21.385 682.884,22.867 682.884,56.721 L682.884,216.047 C682.884,250.747 686.693,252.228 719.701,254.344 L719.701,266.828 L615.599,266.828 L615.599,254.344 ZM245.429,41.275 C244.794,53.547 243.948,71.532 243.948,110.041 L243.948,270.002 L231.253,270.002 L62.828,60.529 L61.982,60.529 L61.982,160.399 C61.982,196.581 63.251,216.047 63.675,227.895 C66.425,248.420 76.158,252.651 102.818,254.344 L102.818,266.828 L6.334,266.828 L6.334,254.344 C29.397,253.498 39.554,248.420 42.093,228.742 C43.151,216.047 44.843,196.581 44.843,160.399 L44.843,72.378 C44.843,42.967 43.997,42.967 36.803,33.023 C28.551,23.290 19.241,20.539 -0.013,18.635 L-0.013,6.363 L57.750,6.363 L225.117,210.545 L226.174,210.545 L226.174,110.041 C226.174,71.532 225.117,53.547 223.847,42.967 C221.096,24.771 211.363,19.693 183.857,18.635 L183.857,6.363 L281.187,6.363 L281.187,18.635 C258.548,19.693 247.756,24.771 245.429,41.275 Z" class="cls-1"/>
</svg>
