<svg xmlns="http://www.w3.org/2000/svg" xmlns:xlink="http://www.w3.org/1999/xlink" preserveAspectRatio="xMidYMid" width="2420.692" height="66.875" viewBox="0 0 2420.692 66.875">
  <defs>
    <style>
      .cls-1 {
        fill: #000;
        fill-rule: evenodd;
      }
    </style>
  </defs>
  <path d="M2401.658,65.812 L2401.658,63.175 C2407.370,62.540 2408.103,61.808 2408.103,55.558 L2408.103,40.324 C2408.103,33.829 2405.954,29.435 2399.314,29.435 C2395.310,29.435 2391.452,31.925 2388.523,34.611 L2388.523,55.949 C2388.523,62.345 2388.962,62.540 2394.871,63.175 L2394.871,65.812 L2375.193,65.812 L2375.193,63.175 C2381.443,62.540 2382.029,62.003 2382.029,55.997 L2382.029,37.150 C2382.029,31.193 2381.394,30.802 2376.316,30.021 L2376.316,27.628 C2380.759,26.847 2384.909,25.724 2388.523,23.820 L2388.523,31.193 C2390.329,29.825 2392.331,28.556 2394.675,26.896 C2397.214,25.382 2399.851,24.113 2402.683,24.113 C2409.909,24.113 2414.548,29.191 2414.548,38.078 L2414.548,55.949 C2414.548,62.296 2415.085,62.540 2420.700,63.175 L2420.700,65.812 L2401.658,65.812 ZM2321.353,66.886 C2308.853,66.886 2301.236,56.730 2301.236,46.427 C2301.236,30.900 2313.101,24.113 2321.255,24.113 L2321.353,24.113 C2332.535,24.113 2341.324,33.195 2341.324,44.767 C2341.324,60.001 2330.240,66.886 2321.353,66.886 ZM2322.476,63.615 C2328.531,63.615 2333.414,59.025 2333.414,46.671 C2333.414,36.368 2328.824,27.384 2320.377,27.384 C2314.468,27.384 2309.146,32.999 2309.146,43.497 C2309.146,55.119 2314.371,63.615 2322.476,63.615 ZM2247.348,63.175 C2253.353,62.736 2254.086,62.101 2254.086,55.949 L2254.086,36.808 C2254.086,31.193 2253.891,30.802 2247.983,30.021 L2247.983,27.628 C2252.719,26.749 2256.772,25.626 2260.580,23.820 L2260.580,55.949 C2260.580,62.101 2261.215,62.736 2267.318,63.175 L2267.318,65.812 L2247.348,65.812 L2247.348,63.175 ZM2256.772,15.861 C2254.330,15.861 2252.231,13.663 2252.231,11.320 C2252.231,8.585 2254.330,6.632 2256.869,6.632 C2259.311,6.632 2261.215,8.585 2261.215,11.320 C2261.215,13.663 2259.311,15.861 2256.772,15.861 ZM2204.397,66.886 C2198.781,66.886 2195.656,63.175 2195.656,55.997 L2195.656,28.995 L2189.065,28.995 L2188.674,27.921 L2191.213,25.187 L2195.656,25.187 L2195.656,18.644 L2200.735,12.589 L2202.102,12.785 L2202.102,25.187 L2212.893,25.187 C2213.821,26.115 2213.528,28.165 2212.356,28.995 L2202.102,28.995 L2202.102,52.775 C2202.102,60.197 2205.178,61.662 2207.571,61.662 C2210.012,61.662 2212.356,60.636 2213.528,60.001 L2214.455,62.443 L2208.645,65.617 C2206.936,66.544 2205.373,66.886 2204.397,66.886 ZM2148.067,65.275 C2146.700,63.908 2146.163,62.540 2145.772,61.027 C2141.915,63.566 2137.618,66.886 2134.395,66.886 C2128.097,66.886 2123.507,61.564 2123.507,55.460 C2123.507,51.115 2125.948,47.843 2131.222,46.232 C2136.837,44.327 2143.624,41.691 2145.626,40.226 L2145.626,38.908 C2145.626,32.072 2142.159,28.263 2137.471,28.263 C2135.470,28.263 2133.907,29.093 2133.028,30.167 C2131.856,31.535 2131.124,33.341 2130.196,36.173 C2129.952,37.540 2128.927,38.175 2127.559,38.175 C2126.143,38.175 2123.751,36.417 2123.751,34.269 C2123.751,32.902 2125.118,31.828 2126.827,30.558 C2129.122,28.800 2135.030,25.187 2140.450,24.113 C2143.087,24.113 2145.968,24.943 2147.872,26.652 C2150.948,29.289 2151.973,32.999 2151.973,37.687 L2151.973,55.216 C2151.973,59.367 2153.487,60.831 2155.245,60.831 C2156.319,60.831 2157.686,60.197 2158.565,59.757 L2159.591,62.345 L2152.071,66.886 C2150.850,66.886 2148.897,66.105 2148.067,65.275 ZM2145.626,43.497 C2143.526,44.523 2138.546,46.671 2136.446,47.599 C2132.637,49.210 2130.587,51.017 2130.587,54.484 C2130.587,59.122 2134.395,61.466 2137.471,61.466 C2140.011,61.466 2143.819,59.367 2145.626,57.755 L2145.626,43.497 ZM2070.888,66.740 L2068.251,66.740 C2064.296,55.753 2060.097,45.402 2055.556,34.513 C2053.407,29.093 2052.675,28.361 2047.694,27.824 L2047.694,25.187 L2066.103,25.187 L2066.103,27.824 C2060.829,28.263 2060.634,28.995 2062.392,33.097 C2064.735,39.542 2068.642,49.406 2071.327,56.388 C2074.794,48.234 2077.773,39.982 2079.775,34.074 C2081.435,29.435 2080.702,28.361 2075.526,27.824 L2075.526,25.187 L2092.275,25.187 L2092.275,27.824 C2087.196,28.263 2086.513,29.191 2083.974,34.708 C2080.800,41.691 2076.161,52.921 2070.888,66.740 ZM1997.420,66.886 C1984.920,66.886 1977.302,56.730 1977.302,46.427 C1977.302,30.900 1989.168,24.113 1997.322,24.113 L1997.420,24.113 C2008.601,24.113 2017.390,33.195 2017.390,44.767 C2017.390,60.001 2006.306,66.886 1997.420,66.886 ZM1998.543,63.615 C2004.597,63.615 2009.480,59.025 2009.480,46.671 C2009.480,36.368 2004.890,27.384 1996.443,27.384 C1990.535,27.384 1985.212,32.999 1985.212,43.497 C1985.212,55.119 1990.437,63.615 1998.543,63.615 ZM1923.756,63.175 C1929.469,62.540 1930.201,61.808 1930.201,55.558 L1930.201,40.324 C1930.201,33.829 1928.053,29.435 1921.412,29.435 C1917.408,29.435 1913.551,31.925 1910.621,34.611 L1910.621,55.949 C1910.621,62.345 1911.060,62.540 1916.969,63.175 L1916.969,65.812 L1897.291,65.812 L1897.291,63.175 C1903.541,62.540 1904.127,62.003 1904.127,55.997 L1904.127,37.150 C1904.127,31.193 1903.492,30.802 1898.414,30.021 L1898.414,27.628 C1902.857,26.847 1907.008,25.724 1910.621,23.820 L1910.621,31.193 C1912.428,29.825 1914.429,28.556 1916.773,26.896 C1919.312,25.382 1921.949,24.113 1924.781,24.113 C1932.008,24.113 1936.646,29.191 1936.646,38.078 L1936.646,55.949 C1936.646,62.296 1937.184,62.540 1942.799,63.175 L1942.799,65.812 L1923.756,65.812 L1923.756,63.175 ZM1844.477,63.175 C1850.190,62.540 1850.922,61.808 1850.922,55.558 L1850.922,40.324 C1850.922,33.829 1848.774,29.435 1842.133,29.435 C1838.129,29.435 1834.272,31.925 1831.342,34.611 L1831.342,55.949 C1831.342,62.345 1831.782,62.540 1837.690,63.175 L1837.690,65.812 L1818.012,65.812 L1818.012,63.175 C1824.262,62.540 1824.848,62.003 1824.848,55.997 L1824.848,37.150 C1824.848,31.193 1824.213,30.802 1819.135,30.021 L1819.135,27.628 C1823.578,26.847 1827.729,25.724 1831.342,23.820 L1831.342,31.193 C1833.149,29.825 1835.151,28.556 1837.494,26.896 C1840.033,25.382 1842.670,24.113 1845.502,24.113 C1852.729,24.113 1857.368,29.191 1857.368,38.078 L1857.368,55.949 C1857.368,62.296 1857.905,62.540 1863.520,63.175 L1863.520,65.812 L1844.477,65.812 L1844.477,63.175 ZM1764.856,63.175 C1770.862,62.736 1771.594,62.101 1771.594,55.949 L1771.594,36.808 C1771.594,31.193 1771.399,30.802 1765.491,30.021 L1765.491,27.628 C1770.227,26.749 1774.280,25.626 1778.088,23.820 L1778.088,55.949 C1778.088,62.101 1778.723,62.736 1784.827,63.175 L1784.827,65.812 L1764.856,65.812 L1764.856,63.175 ZM1774.280,15.861 C1771.838,15.861 1769.739,13.663 1769.739,11.320 C1769.739,8.585 1771.838,6.632 1774.377,6.632 C1776.819,6.632 1778.723,8.585 1778.723,11.320 C1778.723,13.663 1776.819,15.861 1774.280,15.861 ZM1681.591,54.191 C1681.591,62.540 1673.730,66.886 1666.406,66.886 C1661.572,66.886 1657.226,65.079 1655.761,63.712 C1655.029,62.345 1654.150,56.095 1654.150,52.824 L1657.031,52.384 C1658.593,58.634 1662.499,63.712 1668.114,63.712 C1671.532,63.712 1674.999,61.027 1674.999,56.925 C1674.999,52.824 1671.923,50.675 1667.626,48.576 C1661.474,45.792 1655.859,42.960 1655.859,35.880 C1655.859,29.533 1661.327,24.113 1669.726,24.113 C1673.535,24.113 1675.976,24.943 1677.880,25.724 C1678.808,27.824 1679.687,33.097 1680.078,35.636 L1677.343,36.368 C1675.634,30.656 1672.558,27.091 1668.114,27.091 C1664.404,27.091 1661.962,29.923 1661.962,33.732 C1661.962,38.078 1665.820,40.177 1669.824,41.691 C1676.708,44.523 1681.591,47.843 1681.591,54.191 ZM1611.053,66.886 C1605.437,66.886 1602.312,63.175 1602.312,55.997 L1602.312,28.995 L1595.721,28.995 L1595.330,27.921 L1597.869,25.187 L1602.312,25.187 L1602.312,18.644 L1607.391,12.589 L1608.758,12.785 L1608.758,25.187 L1619.549,25.187 C1620.476,26.115 1620.183,28.165 1619.011,28.995 L1608.758,28.995 L1608.758,52.775 C1608.758,60.197 1611.834,61.662 1614.226,61.662 C1616.668,61.662 1619.011,60.636 1620.183,60.001 L1621.111,62.443 L1615.301,65.617 C1613.592,66.544 1612.029,66.886 1611.053,66.886 ZM1558.189,32.706 C1556.920,31.290 1555.797,30.802 1554.381,30.802 C1551.744,30.802 1548.375,33.976 1546.373,39.542 L1546.373,55.949 C1546.373,62.101 1546.764,62.736 1554.088,63.175 L1554.088,65.812 L1533.141,65.812 L1533.141,63.175 C1539.244,62.736 1539.879,62.101 1539.879,55.997 L1539.879,37.150 C1539.879,30.900 1539.488,30.656 1533.971,30.021 L1533.971,27.628 C1538.219,26.896 1542.223,25.724 1546.373,23.820 L1546.373,33.878 L1546.568,33.878 C1549.352,29.289 1553.258,24.113 1557.994,24.113 C1561.266,24.113 1563.317,26.456 1563.317,28.654 C1563.317,30.265 1562.438,31.974 1560.631,32.902 C1559.508,33.244 1558.824,33.195 1558.189,32.706 ZM1490.239,65.275 C1488.872,63.908 1488.335,62.540 1487.944,61.027 C1484.087,63.566 1479.790,66.886 1476.567,66.886 C1470.268,66.886 1465.678,61.564 1465.678,55.460 C1465.678,51.115 1468.120,47.843 1473.393,46.232 C1479.008,44.327 1485.795,41.691 1487.797,40.226 L1487.797,38.908 C1487.797,32.072 1484.331,28.263 1479.643,28.263 C1477.641,28.263 1476.079,29.093 1475.200,30.167 C1474.028,31.535 1473.295,33.341 1472.368,36.173 C1472.124,37.540 1471.098,38.175 1469.731,38.175 C1468.315,38.175 1465.922,36.417 1465.922,34.269 C1465.922,32.902 1467.290,31.828 1468.999,30.558 C1471.293,28.800 1477.202,25.187 1482.622,24.113 C1485.258,24.113 1488.139,24.943 1490.043,26.652 C1493.120,29.289 1494.145,32.999 1494.145,37.687 L1494.145,55.216 C1494.145,59.367 1495.659,60.831 1497.416,60.831 C1498.491,60.831 1499.858,60.197 1500.737,59.757 L1501.762,62.345 L1494.243,66.886 C1493.022,66.886 1491.069,66.105 1490.239,65.275 ZM1487.797,43.497 C1485.698,44.523 1480.717,46.671 1478.618,47.599 C1474.809,49.210 1472.758,51.017 1472.758,54.484 C1472.758,59.122 1476.567,61.466 1479.643,61.466 C1482.182,61.466 1485.991,59.367 1487.797,57.755 L1487.797,43.497 ZM1372.306,65.275 C1370.939,63.908 1370.402,62.540 1370.011,61.027 C1366.154,63.566 1361.857,66.886 1358.634,66.886 C1352.335,66.886 1347.745,61.564 1347.745,55.460 C1347.745,51.115 1350.187,47.843 1355.460,46.232 C1361.076,44.327 1367.863,41.691 1369.865,40.226 L1369.865,38.908 C1369.865,32.072 1366.398,28.263 1361.710,28.263 C1359.708,28.263 1358.146,29.093 1357.267,30.167 C1356.095,31.535 1355.363,33.341 1354.435,36.173 C1354.191,37.540 1353.165,38.175 1351.798,38.175 C1350.382,38.175 1347.990,36.417 1347.990,34.269 C1347.990,32.902 1349.357,31.828 1351.066,30.558 C1353.361,28.800 1359.269,25.187 1364.689,24.113 C1367.325,24.113 1370.206,24.943 1372.111,26.652 C1375.187,29.289 1376.212,32.999 1376.212,37.687 L1376.212,55.216 C1376.212,59.367 1377.726,60.831 1379.484,60.831 C1380.558,60.831 1381.925,60.197 1382.804,59.757 L1383.829,62.345 L1376.310,66.886 C1375.089,66.886 1373.136,66.105 1372.306,65.275 ZM1369.865,43.497 C1367.765,44.523 1362.784,46.671 1360.685,47.599 C1356.876,49.210 1354.826,51.017 1354.826,54.484 C1354.826,59.122 1358.634,61.466 1361.710,61.466 C1364.249,61.466 1368.058,59.367 1369.865,57.755 L1369.865,43.497 ZM1293.564,63.175 C1299.570,62.736 1300.302,62.101 1300.302,55.949 L1300.302,36.808 C1300.302,31.193 1300.107,30.802 1294.199,30.021 L1294.199,27.628 C1298.935,26.749 1302.988,25.626 1306.796,23.820 L1306.796,55.949 C1306.796,62.101 1307.431,62.736 1313.535,63.175 L1313.535,65.812 L1293.564,65.812 L1293.564,63.175 ZM1302.988,15.861 C1300.547,15.861 1298.447,13.663 1298.447,11.320 C1298.447,8.585 1300.547,6.632 1303.086,6.632 C1305.527,6.632 1307.431,8.585 1307.431,11.320 C1307.431,13.663 1305.527,15.861 1302.988,15.861 ZM1247.049,60.831 L1241.336,64.103 C1237.528,66.251 1234.744,66.886 1233.719,66.886 C1226.395,66.886 1216.873,60.099 1216.873,47.160 C1216.873,34.269 1228.299,24.113 1240.506,24.113 C1241.971,24.113 1245.047,24.357 1247.049,25.382 L1247.049,12.589 C1247.049,6.437 1246.707,6.144 1239.725,5.802 L1239.725,3.361 C1244.412,2.628 1250.516,1.066 1253.690,-0.008 L1253.690,55.119 C1253.690,59.806 1254.422,60.197 1257.742,60.441 L1260.916,60.831 L1260.916,63.468 C1258.914,63.810 1252.127,64.982 1247.049,66.886 L1247.049,60.831 ZM1247.049,32.462 C1244.510,29.191 1240.506,27.824 1237.088,27.824 C1232.449,27.824 1224.490,31.535 1224.490,44.621 C1224.490,55.460 1231.180,61.076 1237.430,61.076 C1240.994,61.076 1244.705,59.269 1247.049,57.755 L1247.049,32.462 ZM1155.221,42.960 C1155.270,55.558 1162.741,60.831 1169.088,60.831 C1172.946,60.831 1176.315,59.171 1179.782,56.095 L1181.393,58.390 C1175.436,65.372 1169.235,66.886 1166.354,66.886 C1155.270,66.886 1148.580,57.658 1148.580,47.160 C1148.580,40.812 1150.778,35.001 1154.586,30.802 C1158.297,26.652 1163.278,24.113 1167.868,24.113 L1167.965,24.113 C1175.680,24.113 1181.832,30.900 1181.832,38.322 C1181.832,40.421 1181.491,41.056 1179.879,41.495 C1178.414,41.691 1166.549,42.619 1155.221,42.960 ZM1165.915,27.726 L1165.817,27.726 C1161.471,27.726 1157.272,31.632 1155.563,38.956 C1160.983,39.054 1166.354,38.956 1172.067,38.810 C1173.873,38.712 1174.411,38.175 1174.411,36.808 C1174.411,31.925 1171.041,27.726 1165.915,27.726 ZM1094.546,63.175 C1100.161,62.736 1101.235,62.199 1101.235,55.753 L1101.235,40.421 C1101.235,34.074 1099.184,29.435 1092.886,29.435 C1089.175,29.435 1085.464,31.730 1081.850,34.708 C1082.046,35.783 1082.143,36.808 1082.143,38.615 L1082.143,56.193 C1082.143,62.101 1083.022,62.736 1088.393,63.175 L1088.393,65.812 L1068.618,65.812 L1068.618,63.175 C1074.575,62.736 1075.600,62.101 1075.600,55.997 L1075.600,40.421 C1075.600,33.439 1073.159,29.435 1067.251,29.435 C1063.149,29.435 1059.194,32.462 1056.362,34.708 L1056.362,55.997 C1056.362,62.101 1057.192,62.736 1061.831,63.175 L1061.831,65.812 L1042.690,65.812 L1042.690,63.175 C1048.940,62.736 1049.868,62.101 1049.868,55.997 L1049.868,37.150 C1049.868,31.095 1049.575,30.802 1043.960,30.021 L1043.960,27.628 C1048.012,26.896 1052.651,25.724 1056.362,23.820 L1056.362,31.535 C1058.266,30.070 1060.366,28.263 1063.442,26.456 C1065.542,25.089 1067.690,24.113 1070.864,24.113 C1075.210,24.113 1079.116,26.896 1081.118,31.925 C1083.950,29.630 1086.635,27.921 1088.930,26.359 C1090.835,25.187 1093.276,24.113 1096.059,24.113 C1103.042,24.113 1107.876,29.191 1107.876,38.273 L1107.876,55.997 C1107.876,62.296 1108.608,62.736 1114.028,63.175 L1114.028,65.812 L1094.546,65.812 L1094.546,63.175 ZM933.644,42.960 C933.693,55.558 941.164,60.831 947.512,60.831 C951.369,60.831 954.738,59.171 958.205,56.095 L959.816,58.390 C953.859,65.372 947.658,66.886 944.777,66.886 C933.693,66.886 927.004,57.658 927.004,47.160 C927.004,40.812 929.201,35.001 933.010,30.802 C936.720,26.652 941.701,24.113 946.291,24.113 L946.388,24.113 C954.103,24.113 960.255,30.900 960.255,38.322 C960.255,40.421 959.914,41.056 958.302,41.495 C956.837,41.691 944.972,42.619 933.644,42.960 ZM944.338,27.726 L944.240,27.726 C939.894,27.726 935.695,31.632 933.986,38.956 C939.406,39.054 944.777,38.956 950.490,38.810 C952.297,38.712 952.834,38.175 952.834,36.808 C952.834,31.925 949.464,27.726 944.338,27.726 ZM875.459,66.740 L872.822,66.740 C868.867,55.753 864.668,45.402 860.127,34.513 C857.979,29.093 857.246,28.361 852.266,27.824 L852.266,25.187 L870.674,25.187 L870.674,27.824 C865.401,28.263 865.205,28.995 866.963,33.097 C869.307,39.542 873.213,49.406 875.899,56.388 C879.365,48.234 882.344,39.982 884.346,34.074 C886.006,29.435 885.274,28.361 880.098,27.824 L880.098,25.187 L896.846,25.187 L896.846,27.824 C891.768,28.263 891.084,29.191 888.545,34.708 C885.371,41.691 880.732,52.921 875.459,66.740 ZM802.772,63.175 C808.778,62.736 809.510,62.101 809.510,55.949 L809.510,36.808 C809.510,31.193 809.315,30.802 803.407,30.021 L803.407,27.628 C808.143,26.749 812.196,25.626 816.004,23.820 L816.004,55.949 C816.004,62.101 816.639,62.736 822.743,63.175 L822.743,65.812 L802.772,65.812 L802.772,63.175 ZM812.196,15.861 C809.754,15.861 807.655,13.663 807.655,11.320 C807.655,8.585 809.754,6.632 812.293,6.632 C814.735,6.632 816.639,8.585 816.639,11.320 C816.639,13.663 814.735,15.861 812.196,15.861 ZM759.821,66.886 C754.206,66.886 751.081,63.175 751.081,55.997 L751.081,28.995 L744.489,28.995 L744.098,27.921 L746.638,25.187 L751.081,25.187 L751.081,18.644 L756.159,12.589 L757.526,12.785 L757.526,25.187 L768.317,25.187 C769.245,26.115 768.952,28.165 767.780,28.995 L757.526,28.995 L757.526,52.775 C757.526,60.197 760.602,61.662 762.995,61.662 C765.436,61.662 767.780,60.636 768.952,60.001 L769.880,62.443 L764.069,65.617 C762.360,66.544 760.798,66.886 759.821,66.886 ZM698.364,60.831 C702.271,60.831 705.347,59.660 709.790,55.363 L711.499,57.755 C707.398,62.833 701.148,66.886 695.728,66.886 C684.107,66.886 677.320,57.462 677.320,47.501 C677.320,40.226 680.396,34.074 686.548,29.289 C691.187,25.724 696.704,24.113 700.269,24.113 L700.367,24.113 C704.322,24.113 707.398,25.480 708.765,26.652 C710.034,27.628 710.328,28.263 710.328,29.289 C710.328,31.193 708.228,33.195 707.349,33.195 C706.763,33.195 706.323,33.097 705.591,32.365 C702.906,29.728 699.536,28.654 696.363,28.654 C689.722,28.654 684.204,34.367 684.204,43.790 C684.107,56.583 692.749,60.831 698.364,60.831 ZM632.806,65.275 C631.439,63.908 630.902,62.540 630.511,61.027 C626.654,63.566 622.357,66.886 619.135,66.886 C612.836,66.886 608.246,61.564 608.246,55.460 C608.246,51.115 610.687,47.843 615.961,46.232 C621.576,44.327 628.363,41.691 630.365,40.226 L630.365,38.908 C630.365,32.072 626.898,28.263 622.211,28.263 C620.209,28.263 618.646,29.093 617.767,30.167 C616.595,31.535 615.863,33.341 614.935,36.173 C614.691,37.540 613.666,38.175 612.299,38.175 C610.882,38.175 608.490,36.417 608.490,34.269 C608.490,32.902 609.857,31.828 611.566,30.558 C613.861,28.800 619.769,25.187 625.189,24.113 C627.826,24.113 630.707,24.943 632.611,26.652 C635.687,29.289 636.713,32.999 636.713,37.687 L636.713,55.216 C636.713,59.367 638.226,60.831 639.984,60.831 C641.058,60.831 642.425,60.197 643.304,59.757 L644.330,62.345 L636.810,66.886 C635.590,66.886 633.636,66.105 632.806,65.275 ZM630.365,43.497 C628.265,44.523 623.285,46.671 621.185,47.599 C617.377,49.210 615.326,51.017 615.326,54.484 C615.326,59.122 619.135,61.466 622.211,61.466 C624.750,61.466 628.558,59.367 630.365,57.755 L630.365,43.497 ZM569.689,32.706 C568.420,31.290 567.297,30.802 565.881,30.802 C563.244,30.802 559.875,33.976 557.873,39.542 L557.873,55.949 C557.873,62.101 558.264,62.736 565.588,63.175 L565.588,65.812 L544.641,65.812 L544.641,63.175 C550.744,62.736 551.379,62.101 551.379,55.997 L551.379,37.150 C551.379,30.900 550.988,30.656 545.471,30.021 L545.471,27.628 C549.719,26.896 553.723,25.724 557.873,23.820 L557.873,33.878 L558.068,33.878 C560.852,29.289 564.758,24.113 569.494,24.113 C572.766,24.113 574.816,26.456 574.816,28.654 C574.816,30.265 573.938,31.974 572.131,32.902 C571.008,33.244 570.324,33.195 569.689,32.706 ZM483.819,42.960 C483.868,55.558 491.338,60.831 497.686,60.831 C501.544,60.831 504.913,59.171 508.379,56.095 L509.991,58.390 C504.034,65.372 497.832,66.886 494.952,66.886 C483.868,66.886 477.178,57.658 477.178,47.160 C477.178,40.812 479.376,35.001 483.184,30.802 C486.895,26.652 491.876,24.113 496.465,24.113 L496.563,24.113 C504.278,24.113 510.430,30.900 510.430,38.322 C510.430,40.421 510.088,41.056 508.477,41.495 C507.012,41.691 495.147,42.619 483.819,42.960 ZM494.512,27.726 L494.414,27.726 C490.069,27.726 485.870,31.632 484.161,38.956 C489.581,39.054 494.952,38.956 500.665,38.810 C502.471,38.712 503.008,38.175 503.008,36.808 C503.008,31.925 499.639,27.726 494.512,27.726 ZM434.179,66.886 C428.563,66.886 425.438,63.175 425.438,55.997 L425.438,28.995 L418.847,28.995 L418.456,27.921 L420.995,25.187 L425.438,25.187 L425.438,18.644 L430.517,12.589 L431.884,12.785 L431.884,25.187 L442.675,25.187 C443.603,26.115 443.310,28.165 442.138,28.995 L431.884,28.995 L431.884,52.775 C431.884,60.197 434.960,61.662 437.352,61.662 C439.794,61.662 442.138,60.636 443.310,60.001 L444.237,62.443 L438.427,65.617 C436.718,66.544 435.155,66.886 434.179,66.886 ZM369.011,63.175 C374.724,62.540 375.456,61.808 375.456,55.558 L375.456,40.324 C375.456,33.829 373.308,29.435 366.667,29.435 C362.663,29.435 358.806,31.925 355.876,34.611 L355.876,55.949 C355.876,62.345 356.316,62.540 362.224,63.175 L362.224,65.812 L342.546,65.812 L342.546,63.175 C348.796,62.540 349.382,62.003 349.382,55.997 L349.382,37.150 C349.382,31.193 348.747,30.802 343.669,30.021 L343.669,27.628 C348.113,26.847 352.263,25.724 355.876,23.820 L355.876,31.193 C357.683,29.825 359.685,28.556 362.029,26.896 C364.568,25.382 367.204,24.113 370.036,24.113 C377.263,24.113 381.902,29.191 381.902,38.078 L381.902,55.949 C381.902,62.296 382.439,62.540 388.054,63.175 L388.054,65.812 L369.011,65.812 L369.011,63.175 ZM289.390,63.175 C295.396,62.736 296.129,62.101 296.129,55.949 L296.129,36.808 C296.129,31.193 295.933,30.802 290.025,30.021 L290.025,27.628 C294.761,26.749 298.814,25.626 302.623,23.820 L302.623,55.949 C302.623,62.101 303.258,62.736 309.361,63.175 L309.361,65.812 L289.390,65.812 L289.390,63.175 ZM298.814,15.861 C296.373,15.861 294.273,13.663 294.273,11.320 C294.273,8.585 296.373,6.632 298.912,6.632 C301.353,6.632 303.258,8.585 303.258,11.320 C303.258,13.663 301.353,15.861 298.814,15.861 ZM191.575,66.740 L188.889,66.740 C185.081,56.388 181.370,47.306 177.610,37.540 C174.094,46.671 170.286,56.193 166.477,66.740 L163.645,66.740 C160.422,55.851 157.151,45.255 153.147,33.976 C151.536,29.093 150.608,28.263 146.067,27.824 L146.067,25.187 L164.670,25.187 L164.670,27.824 C159.251,28.654 158.762,29.191 160.130,33.634 C162.327,40.812 164.670,48.234 167.014,55.363 L167.210,55.363 C170.628,46.427 174.094,36.808 178.098,25.724 L180.735,25.724 C184.055,35.538 187.864,45.597 191.770,55.753 L192.063,55.753 C194.065,49.210 196.555,41.251 198.460,34.074 C199.729,28.995 199.192,28.556 193.235,27.824 L193.235,25.187 L210.081,25.187 L210.081,27.824 C205.393,28.556 204.661,29.630 202.659,34.904 C199.729,42.423 195.774,54.191 191.575,66.740 ZM86.759,42.960 C86.808,55.558 94.278,60.831 100.626,60.831 C104.483,60.831 107.852,59.171 111.319,56.095 L112.931,58.390 C106.973,65.372 100.772,66.886 97.892,66.886 C86.808,66.886 80.118,57.658 80.118,47.160 C80.118,40.812 82.315,35.001 86.124,30.802 C89.835,26.652 94.815,24.113 99.405,24.113 L99.503,24.113 C107.218,24.113 113.370,30.900 113.370,38.322 C113.370,40.421 113.028,41.056 111.417,41.495 C109.952,41.691 98.087,42.619 86.759,42.960 ZM97.452,27.726 L97.354,27.726 C93.009,27.726 88.809,31.632 87.101,38.956 C92.521,39.054 97.892,38.956 103.604,38.810 C105.411,38.712 105.948,38.175 105.948,36.808 C105.948,31.925 102.579,27.726 97.452,27.726 ZM26.474,63.175 C32.187,62.540 32.919,61.808 32.919,55.558 L32.919,40.324 C32.919,33.829 30.771,29.435 24.130,29.435 C20.126,29.435 16.269,31.925 13.339,34.611 L13.339,55.949 C13.339,62.345 13.779,62.540 19.687,63.175 L19.687,65.812 L0.009,65.812 L0.009,63.175 C6.259,62.540 6.845,62.003 6.845,55.997 L6.845,37.150 C6.845,31.193 6.210,30.802 1.132,30.021 L1.132,27.628 C5.576,26.847 9.726,25.724 13.339,23.820 L13.339,31.193 C15.146,29.825 17.148,28.556 19.492,26.896 C22.031,25.382 24.667,24.113 27.499,24.113 C34.726,24.113 39.365,29.191 39.365,38.078 L39.365,55.949 C39.365,62.296 39.902,62.540 45.517,63.175 L45.517,65.812 L26.474,65.812 L26.474,63.175 Z" class="cls-1"/>
</svg>
