<svg xmlns="http://www.w3.org/2000/svg" xmlns:xlink="http://www.w3.org/1999/xlink" preserveAspectRatio="xMidYMid" width="155.16" height="82" viewBox="0 0 155.16 82">
  <defs>
    <style>
      .cls-1 {
        fill: #000;
        filter: url(#drop-shadow-1);
        fill-rule: evenodd;
      }
    </style>

    <filter id="drop-shadow-1" filterUnits="userSpaceOnUse">
      <feOffset dx="9.661" dy="8.699" in="SourceAlpha"/>
      <feGaussianBlur stdDeviation="2.646" result="dropBlur"/>
      <feFlood flood-opacity="0.35"/>
      <feComposite operator="in" in2="dropBlur" result="dropShadowComp"/>
      <feComposite in="SourceGraphic" result="shadowed"/>
    </filter>
  </defs>
  <path d="M145.407,65.797 L137.496,65.640 C126.656,65.324 124.165,64.457 124.165,56.809 L124.165,6.742 C120.650,7.373 114.497,7.925 106.879,8.556 C99.262,8.950 89.154,9.423 81.829,9.581 L81.829,13.523 L92.084,14.390 C101.606,15.100 104.389,15.809 104.389,24.167 L104.389,58.307 C93.988,63.590 83.441,66.034 72.747,66.034 C59.709,66.034 46.965,62.565 46.965,48.609 L46.965,28.898 C46.965,19.042 46.965,11.709 47.844,6.742 C44.328,7.373 36.710,7.925 29.239,8.634 C21.915,8.950 15.762,9.423 9.756,9.581 L9.756,13.523 L18.399,14.390 C24.991,15.100 27.335,15.809 27.335,24.167 L27.335,52.551 C27.335,69.582 44.328,75.259 61.907,75.259 C69.231,75.259 74.505,74.234 82.562,71.790 C91.058,69.267 97.504,66.665 104.389,63.748 L104.389,74.392 L106.294,75.259 C110.688,74.392 117.720,73.367 124.751,72.342 C132.076,71.159 139.693,70.449 145.407,69.976 L145.407,65.797 Z" class="cls-1"/>
</svg>
